<svg width="16" height="16" viewBox="0 0 16 16" fill="none" xmlns="http://www.w3.org/2000/svg">
<g clip-path="url(#clip0_5832_108144)">
<path d="M14.4296 9.57264C14.4296 9.38745 14.4296 9.20597 14.4296 9.02078C14.4296 8.58745 14.4296 8.93931 14.4296 8.49857C14.4296 8.08005 14.2074 7.75042 13.8444 7.62079C13.5703 7.52449 13.2777 7.56153 13.0481 7.72449C12.8037 7.89486 12.6666 8.17634 12.6666 8.49486C12.6666 9.60597 12.6666 9.92449 12.6666 11.0356C12.6666 11.7689 12.6666 12.4986 12.6666 13.2319C12.6666 13.8467 12.3 14.2134 11.6851 14.2134C8.96662 14.2134 6.05551 14.2134 2.78514 14.2134C2.16292 14.2134 1.79255 13.843 1.79255 13.2245C1.79255 10.2023 1.79255 7.20967 1.79255 4.32449C1.79255 3.69856 2.15551 3.3393 2.78514 3.3393C3.43329 3.3393 4.08144 3.3393 4.73329 3.3393C5.67033 3.3393 6.06667 3.3393 7 3.3393C7.54074 3.3393 7.93704 2.97264 7.94074 2.46523C7.94074 2.22449 7.85556 2.00227 7.69259 1.8393C7.52222 1.66523 7.28148 1.57264 7.01111 1.57264H6.91477C5.52959 1.56893 4.09625 1.56523 2.68514 1.57264C1.42588 1.58004 0.385144 2.40967 0.092551 3.6393C0.0814399 3.68375 0.0777362 3.72819 0.0703288 3.77264C0.0629214 3.85041 0.0518102 3.91708 0.0184769 3.97264L0.00366211 3.99486V4.15782L0.0147732 4.18004C0.0258843 4.20227 0.0258843 4.2319 0.0221806 4.27634C0.0221806 4.29486 0.0221806 4.31338 0.0221806 4.3319C0.0221806 7.26893 0.0221806 10.2504 0.0221806 13.1875C0.0221806 13.206 0.0221806 13.2245 0.0221806 13.243C0.0221806 13.2875 0.0258843 13.3171 0.0147732 13.3393L0.00366211 13.3615V13.5578C0.0258843 13.6282 0.029588 13.7023 0.0369954 13.78C0.0444028 13.8726 0.0518103 13.9689 0.0851436 14.0652C0.307366 14.78 0.755514 15.3282 1.42218 15.7023C1.72218 15.8726 2.06292 15.9652 2.49625 15.9949H2.637L2.65922 15.9837C2.68144 15.9726 2.71107 15.9726 2.75551 15.9763C2.77403 15.9763 2.79255 15.9763 2.81107 15.9763C5.73699 15.9763 8.70366 15.9763 11.6296 15.9763C11.6481 15.9763 11.6666 15.9763 11.6851 15.9763C11.7296 15.9763 11.7592 15.9726 11.7814 15.9837L11.8037 15.9949H11.9222L11.9407 15.9837C12.0111 15.9467 12.0925 15.9393 12.1814 15.9282C12.2407 15.9208 12.3 15.9171 12.3592 15.9023C13.5888 15.606 14.4185 14.5467 14.4259 13.2726C14.4296 12.4134 14.4259 11.5393 14.4259 10.6986C14.4259 10.3245 14.4259 9.94671 14.4259 9.57264H14.4296Z" fill="white"/>
<path d="M16 0.780505C15.9334 0.354579 15.6889 0.0990234 15.2593 -0.000976562H15.2482H10.263H10.2519C10.2371 0.00643085 10.2222 0.0101345 10.2074 0.0138383C10.1741 0.0212457 10.1371 0.0286531 10.1 0.0434679C9.68891 0.184209 9.45558 0.576801 9.51854 1.01754C9.5741 1.42865 9.93336 1.74347 10.3519 1.75088C10.8778 1.75828 11.4148 1.75828 11.9297 1.75458C12.1445 1.75458 12.3593 1.75458 12.5741 1.75458C12.7111 1.75458 12.8519 1.75458 12.9926 1.75458H13C12.9963 1.75458 12.9926 1.76199 12.9889 1.76569C11.3037 3.45458 9.61854 5.13976 7.92965 6.82495L6.70743 8.04717C6.69632 8.05828 6.68521 8.06939 6.67039 8.0805C6.62965 8.12125 6.58521 8.16569 6.54447 8.21013C6.34447 8.44717 6.2815 8.76199 6.3778 9.05087C6.47039 9.33976 6.70743 9.55828 7.01113 9.63236C7.08891 9.65088 7.15928 9.65828 7.22595 9.65828C7.54447 9.65828 7.77039 9.4731 7.92595 9.31754C10.2259 7.01384 12.5037 4.73606 14.2334 3.01013C14.2371 3.00643 14.2408 3.00273 14.2445 2.99902V3.42865C14.2445 4.12865 14.2445 4.82125 14.2445 5.51384V5.53976C14.2445 5.63976 14.2445 5.74347 14.2778 5.85088C14.3963 6.24347 14.7519 6.49902 15.163 6.48421C15.5815 6.46939 15.8926 6.19162 15.9963 5.73976V5.72865V4.82495C15.9963 4.11754 15.9963 3.41384 15.9963 2.70643C15.9963 2.26569 15.9963 1.81754 16 1.38421C16 1.18421 16 0.987912 16 0.787912V0.780505Z" fill="white"/>
</g>
<defs>
<clipPath id="clip0_5832_108144">
<rect width="16" height="16" fill="white" transform="translate(0 -0.000976562)"/>
</clipPath>
</defs>
</svg>
