<svg width="24" height="24" viewBox="0 0 24 24" fill="none" xmlns="http://www.w3.org/2000/svg">
<path fill-rule="evenodd" clip-rule="evenodd" d="M15 4C14.4477 4 14 4.44772 14 5V7C14 7.55228 14.4477 8 15 8C15.5523 8 16 7.55228 16 7V5C16 4.44772 15.5523 4 15 4ZM3 6C3 5.44772 3.44772 5 4 5H7V7H4C3.44772 7 3 6.55228 3 6ZM17 5H20C20.5523 5 21 5.44772 21 6C21 6.55228 20.5523 7 20 7H17V5ZM11 5C11 4.44772 11.4477 4 12 4C12.5523 4 13 4.44772 13 5V7C13 7.55228 12.5523 8 12 8C11.4477 8 11 7.55228 11 7V5ZM9 4C8.44772 4 8 4.44772 8 5V7C8 7.55228 8.44772 8 9 8C9.55228 8 10 7.55228 10 7V5C10 4.44772 9.55228 4 9 4ZM15 10C14.4477 10 14 10.4477 14 11V13C14 13.5523 14.4477 14 15 14C15.5523 14 16 13.5523 16 13V11C16 10.4477 15.5523 10 15 10ZM3 12C3 11.4477 3.44772 11 4 11H7V13H4C3.44772 13 3 12.5523 3 12ZM17 11H20C20.5523 11 21 11.4477 21 12C21 12.5523 20.5523 13 20 13H17V11ZM11 11C11 10.4477 11.4477 10 12 10C12.5523 10 13 10.4477 13 11V13C13 13.5523 12.5523 14 12 14C11.4477 14 11 13.5523 11 13V11ZM9 10C8.44772 10 8 10.4477 8 11V13C8 13.5523 8.44772 14 9 14C9.55228 14 10 13.5523 10 13V11C10 10.4477 9.55228 10 9 10ZM14 17C14 16.4477 14.4477 16 15 16C15.5523 16 16 16.4477 16 17V19C16 19.5523 15.5523 20 15 20C14.4477 20 14 19.5523 14 19V17ZM4 17C3.44772 17 3 17.4477 3 18C3 18.5523 3.44772 19 4 19H7V17H4ZM20 17H17V19H20C20.5523 19 21 18.5523 21 18C21 17.4477 20.5523 17 20 17ZM12 16C11.4477 16 11 16.4477 11 17V19C11 19.5523 11.4477 20 12 20C12.5523 20 13 19.5523 13 19V17C13 16.4477 12.5523 16 12 16ZM8 17C8 16.4477 8.44772 16 9 16C9.55228 16 10 16.4477 10 17V19C10 19.5523 9.55228 20 9 20C8.44772 20 8 19.5523 8 19V17Z" fill="white"/>
</svg>
