<svg width="50" height="28" viewBox="0 0 50 28" fill="none" xmlns="http://www.w3.org/2000/svg">
<g clip-path="url(#clip0_5124_48901)">
<path d="M33.623 17.3164L31.0766 26.6244C31.0082 26.8785 30.8765 27.0733 30.6817 27.2102C30.4863 27.3471 30.2474 27.4149 29.9644 27.4149H27.3009C27.0278 27.4149 26.7889 27.3273 26.5835 27.1516C26.3788 26.9759 26.2808 26.7613 26.2906 26.508L26.3933 21.1073C26.4032 20.8243 26.415 20.5656 26.4302 20.3313C26.4446 20.097 26.4572 19.8437 26.467 19.5705H26.2038C26.1649 19.8147 26.1208 20.0635 26.0721 20.3169C26.0234 20.5709 25.9695 20.8197 25.9109 21.0632L24.4623 26.6244C24.3939 26.8785 24.2596 27.0733 24.0596 27.2102C23.8595 27.3471 23.6226 27.4149 23.3494 27.4149H20.6122C20.3391 27.4149 20.1002 27.3273 19.8949 27.1516C19.6902 26.9759 19.5921 26.7613 19.602 26.508L19.631 17.3164H22.7485L22.3537 23.5661C22.3438 23.8102 22.3267 24.0709 22.3023 24.3493C22.278 24.6277 22.2556 24.9271 22.2365 25.2496H22.4853C22.5439 24.9376 22.6097 24.623 22.6827 24.3058C22.7558 23.9886 22.8269 23.6984 22.8947 23.4351L24.2998 18.1957C24.4558 17.6099 24.8316 17.3177 25.4265 17.3177H27.6365C27.9195 17.3177 28.1538 17.4132 28.3388 17.6034C28.5237 17.7936 28.6172 18.0305 28.6172 18.3135V23.5825C28.6172 23.8458 28.6145 24.1242 28.6099 24.417C28.6047 24.7099 28.5974 24.9877 28.5882 25.2516H28.8515C28.8811 24.9784 28.9245 24.6757 28.9831 24.344C29.0417 24.0123 29.1002 23.7247 29.1588 23.4805L30.5054 17.319H33.623V17.3164Z" fill="white"/>
<path d="M37.8521 17.318L36.4325 27.4164H33.2715L34.6911 17.318H37.8521ZM38.7597 17.1719C39.7936 17.1719 40.6084 17.2765 41.204 17.4865C41.799 17.6964 42.2044 18.0597 42.4189 18.577C42.6335 19.0943 42.6776 19.8117 42.5506 20.7284C42.4334 21.5972 42.2307 22.2705 41.9431 22.7483C41.6555 23.2267 41.2409 23.5584 40.6992 23.7434C40.1576 23.929 39.4428 24.0218 38.555 24.0218C38.0575 24.0218 37.5671 23.9948 37.0841 23.9415C36.601 23.8882 36.1522 23.8171 35.7375 23.7296C35.3229 23.642 34.9688 23.5492 34.6766 23.4512C34.3837 23.3538 34.1837 23.2662 34.0764 23.1879L34.1639 21.7828H38.2766C38.53 21.7828 38.7301 21.7584 38.8768 21.7097C39.0229 21.661 39.1375 21.5439 39.221 21.3583C39.304 21.1733 39.3698 20.8851 39.4185 20.4948C39.4573 20.2217 39.4646 20.0071 39.4402 19.8512C39.4159 19.6952 39.3448 19.5826 39.2283 19.5148C39.1111 19.4464 38.9308 19.4122 38.6866 19.4122C37.6817 19.4122 36.83 19.4194 36.1324 19.4339C35.4348 19.4484 34.9636 19.4707 34.72 19.4997L34.6911 17.3193C35.1301 17.2706 35.5401 17.2364 35.9205 17.2166C36.3009 17.1969 36.7129 17.185 37.1571 17.1798C37.6007 17.1752 38.1351 17.1725 38.7597 17.1725V17.1719Z" fill="white"/>
<path d="M47.1753 17.3171L46.1361 24.3131C46.1164 24.5276 46.1433 24.679 46.2164 24.7665C46.2895 24.8541 46.4382 24.8981 46.6626 24.8981H49.9994L49.9408 27.2839C49.2675 27.3714 48.5015 27.4254 47.6432 27.4451C46.7844 27.4642 45.9354 27.4741 45.0969 27.4741C44.6086 27.4741 44.1893 27.3714 43.8386 27.1667C43.4871 26.9621 43.2258 26.6817 43.0554 26.325C42.8843 25.9689 42.8336 25.5662 42.902 25.1173L43.9853 17.3164H47.176L47.1753 17.3171Z" fill="white"/>
<path fill-rule="evenodd" clip-rule="evenodd" d="M24.3025 11.3555H28.6765V12.6862H27.4221V15.8848H25.599V12.6862H24.3025V11.3555Z" fill="white"/>
<path fill-rule="evenodd" clip-rule="evenodd" d="M30.8911 13.1851L29.9703 15.8848H28.2203L29.9368 11.3555H31.8375L33.5953 15.8848H31.8236L30.8911 13.1851Z" fill="white"/>
<path fill-rule="evenodd" clip-rule="evenodd" d="M33.1775 11.3555H37.5515V12.6862H36.2971V15.8848H34.474V12.6862H33.1775V11.3555Z" fill="white"/>
<path fill-rule="evenodd" clip-rule="evenodd" d="M39.7667 13.1851L38.846 15.8848H37.0953L38.8118 11.3555H40.7125L42.4703 15.8848H40.6993L39.7667 13.1851Z" fill="white"/>
<path fill-rule="evenodd" clip-rule="evenodd" d="M39.8004 3.04059C39.6379 2.72074 39.4233 2.41405 39.1568 2.12644C38.5578 1.48015 37.7128 0.942452 36.7124 0.571263C35.7055 0.197441 34.5551 0 33.3869 0C32.2187 0 31.0682 0.197441 30.0606 0.571263C29.0603 0.942452 28.2152 1.48015 27.6163 2.12644C27.3498 2.41405 27.1352 2.72074 26.9727 3.04059C28.2745 2.726 30.5016 2.31006 32.5688 2.26662C32.7682 2.26268 32.9058 2.32586 32.9959 2.44037C33.1058 2.5799 33.0979 3.07745 33.0947 3.2999L33.0361 9.05202C33.1526 9.05597 33.2697 9.0586 33.3869 9.0586C33.504 9.0586 33.6225 9.05663 33.739 9.05268L33.6804 3.2999C33.6778 3.07745 33.6692 2.5799 33.7791 2.44037C33.8693 2.32586 34.0068 2.26202 34.2062 2.26662C36.2728 2.31006 38.4993 2.726 39.8011 3.04059H39.8004Z" fill="white"/>
<path fill-rule="evenodd" clip-rule="evenodd" d="M40.078 3.78907C38.1727 3.35865 36.9005 3.27902 35.6448 3.20925C34.5503 3.1487 34.5365 3.53898 34.6458 4.28597C34.6524 4.33138 34.6616 4.38863 34.6721 4.45445C35.0393 6.62828 35.4961 8.49936 35.5751 8.81658C38.2431 8.20715 40.1675 6.51639 40.1675 4.53013C40.1675 4.28004 40.1373 4.03258 40.0787 3.78907H40.078Z" fill="white"/>
<path fill-rule="evenodd" clip-rule="evenodd" d="M32.1284 4.28597C32.2376 3.53898 32.2238 3.1487 31.1293 3.20925C29.8736 3.27902 28.6008 3.35865 26.6948 3.78973C26.6362 4.03258 26.606 4.28004 26.606 4.53013C26.606 5.389 26.9554 6.21957 27.6162 6.93299C28.2151 7.57928 29.0602 8.11698 30.0605 8.48817C30.4232 8.62243 30.8049 8.73234 31.1984 8.82053C31.2722 8.52305 31.7401 6.61314 32.1113 4.39982C32.1179 4.35704 32.1238 4.31821 32.129 4.28597H32.1284Z" fill="white"/>
<path d="M6.93353 3.34796C7.73646 3.1525 8.56703 3.06562 9.39825 3.07944C9.81354 3.09063 10.2288 3.12551 10.6415 3.18409C11.0535 3.24859 11.4615 3.33678 11.865 3.44998C12.2671 3.56647 12.662 3.70928 13.0483 3.87382C13.4346 4.03967 13.8084 4.23579 14.1724 4.44969C15.6242 5.31382 16.8635 6.56494 17.729 8.05694C17.9435 8.43076 18.139 8.81708 18.3081 9.21592C18.4746 9.61606 18.6181 10.0261 18.7379 10.444C18.9248 11.112 19.0433 11.8011 19.0946 12.4974C19.1038 12.5152 19.1124 12.5329 19.1203 12.5507C19.1045 11.8333 19.0176 11.1153 18.855 10.4131C18.753 9.98462 18.6273 9.56144 18.4766 9.14681C18.3233 8.73284 18.1423 8.32941 17.9409 7.93716C17.1261 6.36947 15.9072 5.00976 14.4277 4.03177C14.0572 3.78892 13.6735 3.56449 13.274 3.37034C12.8745 3.17685 12.4639 3.00639 12.0433 2.86226C11.6214 2.72208 11.191 2.60756 10.7547 2.51805C10.3177 2.43447 9.8754 2.3759 9.42984 2.34299C8.54004 2.28573 7.63971 2.33575 6.75781 2.50621C6.20695 2.61283 5.66398 2.76551 5.1355 2.95966L5.9687 3.63952C6.28526 3.52632 6.60709 3.4276 6.93419 3.34796H6.93353Z" fill="white"/>
<path d="M1.37748 5.80135C0.811483 6.53517 0.348813 7.33613 0 8.17525C0.49097 7.41379 1.07605 6.72801 1.73024 6.13766C2.09551 5.80793 2.63847 5.3729 3.20315 5.00698C2.95964 4.83323 2.73127 4.65817 2.52264 4.48047C2.08037 4.91352 1.68352 5.40318 1.37682 5.80135H1.37748Z" fill="white"/>
<path d="M0.69165 18.8359C1.25567 19.912 2.01648 20.8966 2.93261 21.7265C2.92076 21.5027 2.90365 21.2974 2.88325 21.1072C2.05136 20.4786 1.30635 19.7119 0.69165 18.8359Z" fill="white"/>
<path d="M10.3111 23.6278C10.8798 23.533 11.4405 23.3948 11.9835 23.2052C12.5264 23.017 13.0523 22.7847 13.5551 22.5116C14.0579 22.2384 14.5351 21.9199 14.9839 21.5691C15.0978 21.4836 15.205 21.3894 15.315 21.2986C15.4235 21.2065 15.5282 21.1097 15.6348 21.015C15.8415 20.8188 16.0448 20.6201 16.2357 20.4088C17.0057 19.5717 17.6296 18.6062 18.0877 17.5742C17.5592 18.5713 16.8761 19.4769 16.0685 20.239C15.8684 20.4312 15.6572 20.6109 15.4439 20.7859C15.3347 20.8702 15.2268 20.9564 15.1155 21.038C15.003 21.1176 14.8937 21.2012 14.7779 21.2756C14.3212 21.5829 13.8434 21.8547 13.3465 22.0798C12.8496 22.3056 12.3362 22.4892 11.8137 22.6294C11.2911 22.7702 10.7574 22.8617 10.2223 22.9117C9.77015 22.9538 9.31603 22.9637 8.86521 22.942C8.80663 23.1848 8.75859 23.4547 8.72437 23.7673C9.25746 23.7607 9.78923 23.714 10.3131 23.6271L10.3111 23.6278Z" fill="white"/>
<path d="M11.0673 4.18945C11.7544 4.28883 12.433 4.47179 13.0852 4.73505C11.0838 3.69322 8.70332 3.49446 6.54199 4.10653L7.08561 4.55011C8.36043 4.12298 9.73527 3.99464 11.068 4.18879L11.0673 4.18945Z" fill="white"/>
<path d="M3.77508 5.40234C3.26897 5.78143 2.80367 6.2079 2.38443 6.67321C1.83621 7.28264 1.36695 7.95855 1.00366 8.6825C1.45909 8.01449 2.00469 7.42151 2.60754 6.91014C3.0972 6.49551 3.72374 6.07167 4.32462 5.76695C4.25815 5.72351 4.21932 5.69785 4.2134 5.6939C4.06532 5.59584 3.91921 5.49909 3.77574 5.40234H3.77508Z" fill="white"/>
<path d="M2.43174 18.69C2.03555 18.2674 1.67752 17.8041 1.3682 17.3046C0.977262 16.6741 0.661356 15.989 0.437589 15.2683C0.388229 15.0867 0.332945 14.9057 0.286876 14.7214L0.226327 14.4437L0.196053 14.3041L0.180916 14.2344L0.169727 14.1639C0.142086 13.9764 0.108521 13.7881 0.0854858 13.5986C0.0637672 13.4091 0.0479719 13.2182 0.0380999 13.0273C0.0282278 13.2189 0.0236209 13.4104 0.0255953 13.6026C0.028886 13.7947 0.0420487 13.9862 0.0506045 14.1791L0.0545533 14.2515L0.062451 14.3232L0.0782463 14.4673L0.109837 14.7556C0.13682 14.9471 0.173018 15.1373 0.204609 15.3288C0.355322 16.0903 0.606072 16.836 0.946329 17.5428C1.39057 18.4675 1.99211 19.3224 2.71869 20.0641C2.68579 19.9042 2.65156 19.7522 2.61734 19.6015C2.55021 19.304 2.48505 19.0124 2.43306 18.69H2.43174Z" fill="white"/>
<path d="M9.46216 22.3262C10.2875 22.2814 11.1016 22.1274 11.8775 21.8707C12.6515 21.6068 13.3853 21.2415 14.0579 20.7914C14.7266 20.3353 15.3314 19.793 15.8573 19.1875C15.2735 19.7357 14.6259 20.205 13.9342 20.5801C13.2392 20.9487 12.5028 21.2231 11.7485 21.3962C11.072 21.5443 10.0913 21.6055 9.36739 21.5904C9.24892 21.8437 9.14099 22.0826 9.04688 22.338C9.18508 22.3367 9.32329 22.3341 9.4615 22.3262H9.46216Z" fill="white"/>
<path d="M4.31476 12.4247C4.27724 12.4043 3.34861 12.1035 3.31044 12.0759L3.31439 12.7432C3.35717 12.8465 3.39139 12.8761 3.40587 12.9038C2.98071 13.3289 2.60623 15.0447 2.51936 16.6381C2.30678 20.5527 4.13508 17.8451 2.65822 27.4157C4.39373 24.4831 8.14906 20.7442 8.14906 20.7442C8.14906 20.7442 5.78569 23.9802 5.03542 26.5002C5.97392 24.8496 7.64888 23.4564 7.93846 22.6561C7.98124 23.2997 7.90358 24.516 8.36164 25.6302C8.2208 22.0637 8.848 22.1526 9.58578 20.3322C10.1616 18.91 9.51667 17.8122 9.18563 17.4133C9.75294 17.8398 11.2594 18.5078 12.1064 18.7138C11.8471 19.1521 12.1742 19.5352 12.5816 19.424C13.0338 19.3002 15.921 17.289 16.2652 17.0106C16.5535 16.7776 16.6436 16.6677 16.6647 16.5545C16.6943 16.5545 16.718 16.5532 16.7325 16.5472C16.8536 16.4985 17.4051 16.1234 17.4775 16.0872C17.5157 16.0681 17.6137 16.0201 17.6032 15.9582C17.725 15.8805 17.8698 15.5975 17.9764 15.3455C18.1093 15.0309 18.0547 14.84 18.0547 14.84C18.1323 14.869 18.262 14.8933 18.3601 14.8874C18.5266 14.8769 18.6246 14.9098 18.6246 14.9098C18.6246 14.9098 18.6602 14.8848 18.6753 14.8769C18.8201 14.813 19.0722 14.4833 19.1242 14.3175C19.1551 14.2201 19.1367 14.1411 19.0893 14.1056L18.6918 13.7047C18.6918 13.7047 18.747 13.4737 18.7892 13.2697C18.9662 13.1322 18.9655 12.499 18.3989 12.2819C18.2659 12.0344 17.9711 11.6079 17.6355 11.7145C17.6098 11.5296 17.3393 11.0735 16.9872 11.2295C16.9135 11.0603 16.6094 10.9708 16.385 11.0557C16.2948 11.0656 16.2165 11.0886 16.1593 11.1104C16.0388 10.7056 15.7486 10.1297 15.6617 9.96126C15.661 9.95929 15.6597 9.95731 15.6591 9.95534C15.6591 9.95534 15.6578 9.95205 15.6558 9.9481C15.6479 9.93164 15.6413 9.91914 15.636 9.9119C15.636 9.9119 15.6347 9.91058 15.6341 9.90993C15.5827 9.82897 15.4471 9.68089 15.1931 9.80594C15.0635 9.63746 14.7377 9.42159 14.4488 9.54729C14.3382 9.41698 13.942 8.97471 13.4997 9.25771C13.4997 9.25771 13.3431 8.94575 13.0061 9.04777H13.0074C12.9785 9.04908 12.9508 9.05171 12.9258 9.05632C12.9258 9.05632 12.9265 9.05632 12.9271 9.05566C12.7007 9.08857 12.6527 9.12345 12.529 9.40316L4.51746 2.86457L4.49443 2.8468C4.49443 2.8468 4.47073 2.82837 4.4273 2.7948L1.43343 0.479477L1.43475 0.484742C1.23402 0.327448 1.05895 0.190555 0.924691 0.0839369C0.856902 0.0299696 0.706847 -0.0562463 0.579169 0.0516882C0.579169 0.0516882 0.317888 0.218197 0.300118 0.253736C0.300118 0.253736 0.142165 0.418929 0.281691 0.67297C0.421216 0.927011 1.54268 3.03437 2.34363 3.87744C2.84777 4.40856 3.58027 4.89295 4.38715 5.42735C4.40097 5.43657 4.58328 5.55635 4.88339 5.75313C5.09136 5.66428 5.48361 5.54713 6.18716 5.48527C6.36156 5.47013 6.5307 5.47079 6.69392 5.48527C4.56616 3.95642 2.51475 2.43151 1.86649 1.78588C0.887835 0.811178 0.433062 0.297173 0.433062 0.297173C0.433062 0.297173 0.507432 0.23465 0.600887 0.172785C0.661436 0.133297 0.656171 0.126716 0.737122 0.133955C0.754891 0.135272 0.772003 0.143827 0.785824 0.155016L7.19871 5.28717L8.91711 6.63569L12.4711 9.544C12.4711 9.544 10.8422 8.42385 8.84866 7.01741C9.23894 7.89734 9.46534 8.49625 9.46534 8.49625C9.46534 8.49625 9.87799 8.75753 10.0465 9.02407C10.0412 9.01947 10.0353 9.01552 10.03 9.01091C10.03 9.01091 10.028 9.00959 10.0254 9.00762C10.032 9.04053 10.0208 9.07475 9.99514 9.10634C11.2732 9.94481 12.2637 10.5944 12.2637 10.5944C12.244 11.1143 12.396 11.8712 12.5434 12.1476C12.6974 12.4372 12.8962 12.6813 13.0568 12.7583C13.2141 12.834 13.4135 12.7616 13.4207 12.7583C13.449 12.7669 13.478 12.7735 13.507 12.7774C13.449 12.8327 13.3859 12.8992 13.3516 12.9347C13.3516 12.9347 13.0344 13.2723 12.7356 13.5132C12.4368 13.7541 12.3434 13.7666 12.036 13.8245C11.728 13.8824 11.6971 13.8377 11.2772 13.8094C11.1554 13.8015 9.7977 13.6383 9.7977 13.6383C9.78651 13.637 9.774 13.635 9.76018 13.633C9.54958 13.5988 9.03492 13.5244 8.84998 13.4375C8.72822 13.3803 8.54395 13.1466 8.4314 12.9926C8.42153 12.994 8.41034 12.9946 8.39981 12.9959L4.31541 12.4234L4.31476 12.4247ZM18.2232 12.5938C18.2232 12.5938 18.4147 12.6287 18.5832 12.8413C18.7517 13.0538 18.5832 13.4968 18.5832 13.4968C18.5832 13.4968 18.2232 13.7284 18.1791 13.4356C18.135 13.1427 18.2232 12.5938 18.2232 12.5938ZM16.9161 11.6231C16.9326 11.525 17.0853 11.5632 17.2597 11.6231C17.4341 11.6829 17.5236 12.1219 17.5236 12.1219C17.5236 12.1219 17.7078 12.0673 17.9421 12.1871C18.1764 12.3069 18.0317 12.9209 17.9968 13.0459C17.9619 13.171 17.7381 13.3651 17.5637 13.3408C17.3893 13.3158 17.3742 13.1414 17.3742 12.8992C17.3742 12.657 17.2748 12.6517 17.2748 12.6517C17.2748 12.6517 17.2346 12.8663 17.1603 12.8966C17.0859 12.9268 16.8463 12.682 16.8516 12.5023C16.8569 12.3227 16.9161 11.6237 16.9161 11.6237V11.6231ZM16.0612 11.5803C16.0671 11.5362 16.0678 11.3723 16.1777 11.3368C16.3198 11.2907 16.5107 11.2578 16.6246 11.3433C16.7726 11.4546 16.6502 12.0956 16.6654 12.3108C16.6798 12.526 16.5028 12.5326 16.3929 12.5273C16.1698 12.5175 16.0382 12.3707 16.0382 12.0884C16.0382 11.8751 16.0421 11.7172 16.0605 11.5803H16.0612ZM13.5175 9.52031C13.5287 9.49991 13.5491 9.48148 13.5715 9.46502C13.6524 9.40711 13.759 9.40119 13.8439 9.45318C13.9269 9.50451 13.9907 9.60389 14.0552 9.81713C13.8387 9.78488 13.4977 9.86188 13.4977 9.86188C13.4826 9.79936 13.4806 9.58744 13.5175 9.51965V9.52031ZM14.4639 10.2193C14.5633 10.2318 14.658 10.339 14.7054 10.5141C14.7528 10.6885 14.6982 11.0242 14.6008 11.0571C14.2599 11.036 13.7215 11.2209 13.6149 11.2907C13.5649 11.2051 13.2885 10.3575 13.2885 10.3575C13.8558 10.1442 14.3639 10.2074 14.4639 10.2199V10.2193ZM12.6797 9.70854C12.8225 9.22941 13.0318 9.19058 13.0318 9.19058C13.2003 9.1353 13.3865 9.44331 13.3865 9.44331C13.2621 9.59336 13.3043 9.89479 13.3043 9.89479C13.0456 9.92506 12.6106 10.2824 12.6106 10.2824C12.6106 10.2824 12.5632 10.1001 12.6803 9.70788L12.6797 9.70854ZM12.9495 11.7106C12.9495 11.7106 12.9199 11.65 12.8929 11.5928C12.7218 11.167 12.6764 10.7306 12.6764 10.7306L12.7554 10.6385C12.7975 10.5891 12.8468 10.5437 12.9002 10.5069C13.0969 10.3713 13.1739 10.3818 13.1739 10.3818C13.1443 10.4542 13.1542 11.0735 13.249 11.5125C13.1193 11.5651 12.9495 11.7106 12.9495 11.7106ZM13.3865 12.2779C13.2496 12.2693 13.1601 12.1357 13.1601 12.1357C13.892 11.5052 14.5547 11.4381 14.5547 11.4381C14.6745 11.5829 14.6692 11.9962 14.6692 11.9962C14.6692 11.9962 14.3553 12.0522 14.0914 12.0726C13.8275 12.0936 13.5234 12.2865 13.3865 12.2779ZM6.4333 14.9078L7.26979 14.1187C7.26979 14.1187 6.52281 13.5948 5.88639 13.4895C5.24997 13.3849 4.70503 13.6718 4.70503 13.6718C5.50862 13.0631 6.04237 13.1572 6.78343 13.325C8.41495 13.6942 9.61079 13.8489 9.61079 13.8489L9.54497 13.8903L7.03023 15.5298L8.45641 13.9535L6.4333 14.9078ZM9.54497 15.3165C9.57656 15.2968 9.60684 15.277 9.63711 15.2579C9.73452 15.1698 9.91748 14.9473 10.2229 14.3885C10.2229 14.3885 9.96355 14.5781 9.2317 14.944C8.39389 15.3633 7.537 15.5903 7.537 15.5903L9.00135 14.8545L10.4157 14.0457L10.9238 14.1385L11.6425 14.2174C11.6425 14.2174 11.0159 14.3859 9.63711 15.2579C9.57196 15.3172 9.54497 15.3165 9.54497 15.3165ZM11.6471 14.9111L11.8557 14.3089C11.8557 14.3089 12.4033 14.3754 12.7718 14.0865C13.0601 13.8601 13.5326 13.1039 13.7478 12.9795C13.7478 12.9795 13.9769 12.782 14.2158 12.8268C14.4547 12.8715 14.1658 13.787 13.8972 14.2477C13.6281 14.7084 13.53 14.7328 13.3095 14.7986C12.5092 15.0381 11.6471 14.9111 11.6471 14.9111ZM13.7617 16.0359C14.7232 15.6522 14.8167 15.5923 15.1345 14.2141C15.2069 14.3879 15.4123 14.7367 15.3794 14.9249C15.3655 15.0072 15.3807 15.0908 15.4162 15.1737C15.3794 15.2046 15.3524 15.2395 15.3333 15.2751C15.3201 15.2895 15.1971 15.433 15.1655 15.6851C15.1641 15.6943 15.1635 15.691 15.1628 15.6864C14.9759 15.8016 13.0114 16.4182 12.3881 16.4182C11.7649 16.4182 12.8001 16.4189 13.761 16.0352L13.7617 16.0359ZM15.7677 16.8572L14.5337 17.4923C14.5205 17.5009 14.5034 17.4989 14.4928 17.4864C14.4244 17.4061 14.3013 17.212 14.1381 16.8631C14.0506 16.6762 14.017 16.5828 14.0045 16.5361C13.9979 16.5124 14.0104 16.4873 14.0341 16.4795L14.6442 16.2642C14.6712 16.255 14.7002 16.2669 14.712 16.2925C14.7285 16.3281 14.7561 16.382 14.7976 16.4459C14.8443 16.517 14.9147 16.6019 14.9621 16.6565C14.9786 16.6756 15.0101 16.6631 15.0095 16.6381C15.0029 16.3024 15.2326 16.0273 15.2326 15.9826C15.2326 15.9345 15.1595 15.8325 15.1595 15.8325L15.2688 15.7792L15.4057 15.9312C15.3228 16.2267 15.1885 16.413 15.2293 16.4873C15.3234 16.6585 15.6604 16.7907 15.7644 16.8283C15.7769 16.8329 15.7788 16.85 15.7677 16.8572ZM17.286 15.8641C17.0727 15.8871 16.8477 15.7417 16.8477 15.7417C16.8477 15.7417 16.1013 15.3317 15.9289 15.2323C15.7565 15.1329 15.7111 14.9466 15.69 14.738C15.6683 14.5294 15.5018 14.4577 15.4577 13.8239C15.4142 13.1907 15.738 12.8761 15.738 12.8761C15.8197 12.7945 15.95 12.7353 15.95 12.7353C16.0079 12.8202 16.0599 12.8636 16.2053 12.8255C16.3508 12.7873 16.5127 13.0111 16.283 13.2875C16.0533 13.5639 16.0744 13.5356 15.9506 13.7344C15.8276 13.9331 15.9579 14.1279 16.0105 14.2234C16.0632 14.3188 16.1257 14.407 16.1829 14.5149C16.2402 14.6228 16.2145 14.5722 16.4218 14.7979C16.6292 15.0237 17.2037 15.4073 17.2037 15.4073L17.4413 14.8381C17.4413 14.8381 17.4479 15.6337 17.49 15.7818C17.3729 15.8476 17.286 15.8634 17.286 15.8634V15.8641ZM18.5799 14.7643C18.4101 14.8631 17.8869 14.688 17.8869 14.688L16.4317 13.5547C16.4317 13.5547 16.641 13.1684 16.7075 12.9696C16.7364 13.4079 17.2189 13.3533 17.2189 13.3533C17.3255 13.7831 17.931 13.6936 17.931 13.6936C18.1054 14.1378 18.5463 13.9239 18.5463 13.9239C18.5463 13.9239 18.8806 14.251 18.9353 14.2977C18.9899 14.3445 18.7497 14.6669 18.5799 14.765V14.7643Z" fill="white"/>
<path d="M9.94654 9.03073C9.78266 8.77208 9.38185 8.51804 9.38185 8.51804C9.38185 8.51804 9.15216 7.90926 8.75662 7.02144C8.36042 6.13427 7.39494 5.48798 6.19844 5.59328C5.35866 5.66699 4.97497 5.82231 4.8203 5.90787C4.82228 5.90918 4.82425 5.9105 4.82623 5.91182C4.63405 6.01909 4.49848 6.12637 4.42937 6.18823C4.42937 6.18823 3.81862 6.48637 3.55931 7.25705C3.40004 7.73025 3.45664 9.09588 3.45664 9.09588C3.45664 9.09588 3.26381 9.10905 3.24078 9.15512C3.21774 9.20119 3.17167 9.53026 3.17365 9.5908C3.17562 9.65135 3.19536 9.74086 3.25525 9.7889L3.25394 9.79154L3.26249 10.2792L3.27961 10.6662L3.52904 11.1269L3.5139 12.1095C3.86601 12.3596 4.32999 12.638 4.79135 12.7637C5.72985 13.019 7.64569 13.0072 8.11823 13.0072C8.25578 13.0072 8.35648 13.0006 8.43085 12.9907C8.3749 12.9144 8.10507 12.6044 8.10507 12.6044C8.10507 12.6044 8.85205 12.607 9.1311 12.1924C9.20087 12.1042 9.20811 12.0259 9.2114 11.9568C9.21469 11.8903 9.19099 11.839 9.17059 11.8068C9.19955 11.7666 9.22917 11.7028 9.22851 11.6304C9.22785 11.5586 9.21666 11.5238 9.16072 11.4494C9.16072 11.4487 9.16006 11.4481 9.1594 11.4474C9.1594 11.4481 9.16006 11.4487 9.16072 11.4494C9.17783 11.327 9.20876 11.1164 9.19823 10.9314C9.20613 10.9229 9.29695 10.8498 9.32854 10.8037C9.3779 10.734 9.38712 10.6524 9.37461 10.5879C9.36869 10.5412 9.35092 10.4694 9.25747 10.3746C9.2601 10.3773 9.26273 10.3799 9.26471 10.3819C9.28971 10.3279 9.30419 10.2786 9.30419 10.2417C9.30419 10.168 9.1469 10.0554 9.0745 10.0074C9.08174 10.0008 9.08898 9.99358 9.09622 9.98634C9.1877 9.89157 9.2963 9.73888 9.30354 9.67044C9.30748 9.63556 9.31077 9.5625 9.30419 9.49472C9.3167 9.47431 9.32854 9.45523 9.33973 9.44141C9.40686 9.3598 9.6609 9.26963 9.82741 9.16499C9.82807 9.16499 9.82939 9.16367 9.83004 9.16301C9.83465 9.15972 9.83992 9.15709 9.84452 9.1538C9.8669 9.13932 9.87677 9.13011 9.89586 9.10839C9.8952 9.10839 9.89388 9.10839 9.89323 9.10839C9.91955 9.0768 9.93074 9.04323 9.92416 9.01033C9.92745 9.0123 9.92877 9.01362 9.92877 9.01362C9.93403 9.01757 9.9393 9.02217 9.94456 9.02612L9.94654 9.03073ZM8.43677 6.76345C8.87706 7.47687 9.11399 8.47658 9.11399 8.47658L8.74741 8.41537C8.74741 8.41537 8.51706 6.35277 6.98821 5.87759C6.98821 5.87759 7.9662 6.00132 8.43743 6.76345H8.43677ZM5.45475 7.95994C5.48766 8.43446 5.4712 8.58451 5.46923 8.64967L5.20268 8.75036C5.23493 8.5516 5.37511 7.54729 5.00458 6.82399C5.00458 6.82399 5.40341 7.20966 5.45475 7.95994ZM8.04913 12.5873C8.04913 12.5873 6.85395 12.663 6.1708 12.6551C5.48766 12.6472 4.97233 12.2016 4.87296 12.1095C4.73804 11.9831 4.62484 11.7436 4.58272 11.4428C4.55705 11.2631 4.56626 10.9847 4.5735 10.6063L4.16612 10.863C4.15098 10.8722 4.13189 10.8663 4.12465 10.8505L3.84165 10.2252C3.83244 10.2048 3.83902 10.1798 3.85811 10.1673L4.58338 9.68228C4.58535 9.53552 4.58864 9.39139 4.59259 9.2591L3.86271 9.70861C3.85284 9.71453 3.84034 9.70729 3.84034 9.69611V9.59673C3.84034 9.59146 3.84297 9.58685 3.84692 9.58422L4.59654 9.11234C4.60509 8.83329 4.61299 8.63716 4.61299 8.63716C4.61299 8.63716 4.63734 8.4463 4.38462 8.45223C4.18125 8.45683 4.17401 8.65822 4.17401 8.65822L4.10162 8.71351C4.10162 8.71351 4.05818 8.42393 4.31486 8.34495C4.57153 8.26597 4.70645 8.43841 4.70645 8.61676C4.70645 8.61676 4.69328 9.50327 4.67354 9.73559C4.66301 9.85801 4.65314 10.1542 4.64787 10.4543C4.8203 10.3411 5.61994 9.84353 6.46631 9.75534C7.42258 9.6553 8.47823 9.95607 8.81717 10.2588C8.82573 10.2878 8.81717 10.37 8.81717 10.37C8.92182 10.4201 9.0054 10.4661 9.06792 10.5043C8.97578 10.5741 8.8152 10.6833 8.74938 10.7274C8.78229 10.5879 8.80927 10.4556 8.81717 10.37C8.81717 10.37 8.13139 9.87314 6.98821 9.86788C5.75486 9.86196 4.81965 10.4405 4.64656 10.555C4.64327 10.7919 4.64261 11.0196 4.64656 11.1526C4.65314 11.352 4.68736 11.5205 4.73343 11.6606C5.0546 11.4579 5.61007 11.1499 6.21161 11.0111C6.40181 10.967 6.59925 10.9354 6.79669 10.9143L6.82565 10.0094L6.92963 10.0054L6.91647 10.9031C7.22777 10.8768 7.53512 10.8775 7.80693 10.9018L7.60686 10.0337L7.71874 10.0522L7.93132 10.915C8.24262 10.9531 8.49666 11.0249 8.64079 11.1243C8.64276 11.1249 8.64474 11.1262 8.64737 11.1269C8.66185 11.0749 8.67699 11.019 8.69344 10.9564L8.75794 11.1743C8.71779 11.1565 8.6783 11.1401 8.64145 11.1249C8.63684 11.1578 8.60854 11.2329 8.60854 11.2329C8.60854 11.2329 7.88064 10.9248 6.74536 11.0598C5.84897 11.1664 5.14345 11.5205 4.767 11.7488C4.8203 11.8811 4.88414 11.9831 4.94469 12.0509C4.998 12.1108 5.09343 12.2003 5.23361 12.2878C5.42184 12.17 5.98916 11.8508 6.73746 11.7666L6.79669 11.1572L6.90068 11.1532L6.8579 11.7567C6.93227 11.7508 7.00795 11.7469 7.08495 11.7469C7.38638 11.7455 7.62134 11.7561 7.80364 11.7725L7.81746 11.1539L7.92145 11.1499L7.92276 11.785C8.29724 11.8285 8.39399 11.8936 8.39399 11.8936L8.35516 11.9838C8.35516 11.9838 7.98463 11.7409 6.88883 11.8351C6.06484 11.9061 5.53241 12.1977 5.31786 12.3379C5.52188 12.4498 5.80422 12.5491 6.17409 12.5676C6.29651 12.5735 6.43472 12.5748 6.58016 12.5722L6.74601 11.9068L6.85 11.9028L6.7006 12.5702C7.04218 12.5603 7.40547 12.5347 7.67925 12.5116L7.776 11.9311L7.87998 11.9272L7.79969 12.5011C7.99384 12.484 8.1202 12.4702 8.1202 12.4702L8.05176 12.588L8.04913 12.5873ZM9.0824 10.89C8.99224 10.9663 8.86851 11.0611 8.86851 11.0611L8.80467 10.8656C8.88759 10.8077 8.97973 10.7406 9.04423 10.684L9.0824 10.89ZM8.14916 12.4728C8.23209 12.3293 8.31501 12.1049 8.35582 11.9956C8.43611 12.0253 8.52101 12.1062 8.59999 12.1641C8.68949 12.2299 8.7428 12.3063 8.77176 12.3458C8.60196 12.4419 8.28474 12.5037 8.1485 12.4728H8.14916ZM8.84481 12.2747C8.75465 12.0707 8.39465 11.8778 8.40452 11.8824C8.48547 11.6929 8.57563 11.3645 8.59867 11.2737C8.70924 11.3118 8.76913 11.3336 8.80532 11.3467C8.81585 11.4296 8.86982 11.7449 8.87706 11.9733C8.88101 12.0832 8.86061 12.2029 8.84416 12.2747H8.84481ZM8.91128 11.1881C8.91128 11.1881 8.90602 11.1756 8.96657 11.1243C8.98895 11.1052 9.03962 11.0558 9.09425 11.0012C9.09622 11.0716 9.0982 11.2361 9.08372 11.3625C9.03896 11.3243 8.97907 11.2868 8.91458 11.2519L8.91194 11.1881H8.91128ZM9.09161 11.5678C9.08898 11.6126 9.0699 11.7041 8.96591 11.7712C8.95999 11.6666 8.94946 11.5632 8.933 11.479C8.98236 11.5034 9.04357 11.5363 9.09227 11.5685L9.09161 11.5678ZM9.14032 12.041C9.12057 12.1121 8.98105 12.2135 8.94156 12.2253C8.94288 12.1779 8.97183 12.0601 8.97183 11.9989C8.99224 11.9838 9.02251 11.9588 9.05673 11.9285C9.09688 11.9463 9.15611 11.9825 9.14032 12.041ZM9.25615 10.6925C9.25352 10.7235 9.21403 10.7682 9.17717 10.8037L9.12123 10.605C9.13308 10.5912 9.14427 10.5767 9.15545 10.5622C9.19297 10.5885 9.21205 10.6037 9.21205 10.6037C9.21205 10.6037 9.2601 10.634 9.25549 10.6925H9.25615ZM9.14953 10.1838C9.20218 10.2351 9.15151 10.3312 9.15019 10.3779C9.04949 10.3062 8.88562 10.2489 8.8198 10.2206C8.8198 10.2206 8.93959 10.1193 9.00408 10.0699C9.05805 10.1002 9.11531 10.1509 9.14887 10.1838H9.14953ZM9.63853 9.01888C9.51085 9.00769 8.59275 8.78064 7.853 8.73654C7.11325 8.69245 6.6315 8.73654 6.25373 8.78853C5.54096 8.81552 4.72882 9.17749 4.72882 9.17749C6.84605 8.04221 9.39173 8.71877 9.39173 8.71877L9.84255 9.01888C9.84255 9.01888 9.76621 9.03007 9.63853 9.01888Z" fill="white"/>
<path d="M4.01741 10.2818L4.1826 10.6635C4.18918 10.6793 4.20892 10.6859 4.2234 10.6767L4.57682 10.4693C4.5788 10.3476 4.58011 10.2166 4.58011 10.0758C4.58011 10.0086 4.58011 9.9402 4.58077 9.87109L4.03452 10.2239C4.01543 10.2364 4.00819 10.2607 4.01741 10.2811V10.2818Z" fill="white"/>
<path d="M4.2642 11.8575C4.37411 11.7127 4.36029 11.2355 3.94369 10.8644C3.91341 10.8374 3.57645 10.4241 3.54815 10.4023C3.11575 11.1803 2.44642 11.0526 1.9594 11.4027C1.17885 11.9628 1.30192 12.5406 0.579288 12.3715C0.579288 12.3715 0.916912 12.9921 1.79092 12.5308C1.79092 12.5308 1.77183 13.025 1.31048 13.416C1.08803 13.6048 0.373291 13.8122 0.373291 13.8122C0.373291 13.8122 1.12686 14.0372 1.85805 13.7832C1.65074 14.0432 1.09856 14.3229 1.09856 14.3229C2.33783 14.5308 2.83736 13.487 3.06705 13.0138C3.44153 12.2418 3.76072 12.4979 3.87327 12.3491C3.91868 12.4149 4.08584 12.3419 4.10032 12.359C4.06347 12.4281 4.16943 11.9819 4.2642 11.8575Z" fill="white"/>
</g>
<defs>
<clipPath id="clip0_5124_48901">
<rect width="50" height="27.4733" fill="white"/>
</clipPath>
</defs>
</svg>
